<?xml version="1.0" standalone="no"?><!DOCTYPE svg PUBLIC "-//W3C//DTD SVG 1.1//EN" "http://www.w3.org/Graphics/SVG/1.1/DTD/svg11.dtd"><svg t="1613664174621" class="icon" viewBox="0 0 1024 1024" version="1.1" xmlns="http://www.w3.org/2000/svg" p-id="11874" width="32" height="32" xmlns:xlink="http://www.w3.org/1999/xlink"><defs><style type="text/css"></style></defs><path d="M837.7 622.2c-1.1-0.5-28.7-11.3-82.7-22.1-26.3-5.2-54.6-9.6-84.1-12.9h-0.3l-11.7-1.1c5.2-15.7 7.9-32.3 7.9-49.1 0-38.1-14.1-74.9-39.1-103.2 18.7-33.4 37.2-75.3 52.7-119.9 19.2-55 32.3-108.8 36.7-151.4 5.6-53.4-2.9-83.4-26-91.5-25-8.8-52.5 12.9-84.3 66.5-5.6 9.5-2.5 21.7 6.9 27.4 0.1 0.1 0.3 0.1 0.4 0.2 9.4 5.3 21.3 2.2 26.8-7.1 17.1-28.8 29.6-41.8 36.1-46.6 2.1 7.8 3.8 25.5-0.7 58.2-5.1 37.7-17 84.3-33.4 131.2-13.8 39.4-29.8 76.4-46 106.5-12.6-8.3-26.2-14.6-40.6-18.9 6.2-32.7 16.4-70.3 29.5-107.8 7.5-21.6 15.8-42.5 24.5-62.2 4.4-10 0-21.7-9.8-26.2-0.1 0-0.2-0.1-0.2-0.1-10-4.5-21.7 0.1-26.2 10.1-9.1 20.6-17.7 42.6-25.6 65.2-14.1 40.4-24.8 79.7-31.3 114.8-3-0.1-5.9-0.1-8.9 0-6.5-35.1-17.2-74.4-31.3-114.8-19.2-55-42.5-105.2-65.4-141.2-28.8-45.2-54.1-63.2-77.2-55-23.1 8.2-31.6 38.1-26 91.5 4.5 42.6 17.5 96.3 36.7 151.4 15.6 44.6 34 86.5 52.7 119.9-25 28.3-39.1 65-39.1 103.2 0 16.7 2.7 33.2 7.9 49-3.9 0.4-7.9 0.8-12 1.3-109.4 12.4-164.5 34.1-166.8 35-10.2 4.1-15.1 15.6-11.1 25.9 4 10.2 15.5 15.2 25.7 11.2 0.5-0.2 45.9-17.9 135-29.8l-20 305.7c-0.4 5.5 1.6 10.9 5.3 14.9 3.8 4 9 6.3 14.5 6.3h351.2c5.5 0 10.7-2.3 14.5-6.3 3.8-4 5.7-9.4 5.3-14.9l-20-305.7c20.6 2.8 40.5 6 59.2 9.8 50 10 75.5 20 75.8 20 2.4 1 4.9 1.4 7.3 1.4 7.9 0 15.3-4.8 18.4-12.6 3.9-10.5-1.1-22.1-11.2-26.2z" fill="#2E0C08" p-id="11875"></path><path d="M530.5 423.2c22 3.5 42.4 13.3 59 28.4 23.9 21.8 37.6 52.9 37.6 85.3 0 15.8-3.3 31.5-9.5 45.8l-104.2-4.1h-0.8c-36 0-71.3 1.2-105.2 3.6-6.1-14.3-9.3-29.7-9.3-45.4 0-32.4 13.7-63.5 37.6-85.3 16.6-15.1 37-25 59-28.4 11.8-1.7 24.1-1.7 35.8 0.1z" fill="#F2F2F2" p-id="11876"></path><path d="M610.3 218.3c-8.7 19.7-16.9 40.6-24.5 62.2-13.1 37.5-23.4 75.1-29.5 107.8 14.4 4.3 28.1 10.6 40.6 18.9 16.2-30.2 32.3-67.2 46-106.5 16.4-46.9 28.2-93.5 33.4-131.2 4.5-32.7 2.7-50.4 0.7-58.2-6.5 4.8-19 17.7-36.1 46.6-5.5 9.3-17.5 12.5-26.8 7.1-4.6 8.5-9.1 17.5-13.6 27.1 9.8 4.5 14.2 16.2 9.8 26.2z" fill="#F2F2F2" p-id="11877"></path><path d="M568.5 525.8c11 0 19.8 8.9 19.8 20 0 11-8.9 20-19.8 20-11 0-19.9-8.9-19.9-20s8.9-20 19.9-20z" fill="#2E0C08" p-id="11878"></path><path d="M456.9 525.8c-11 0-19.9 8.9-19.9 20 0 11 8.9 20 19.9 20 11 0 19.8-8.9 19.8-20s-8.8-20-19.8-20z" fill="#2E0C08" p-id="11879"></path><path d="M600.2 678.5c-28.1-1.7-57.6-2.5-87.5-2.5-48.3 0-95 2.2-139.1 6.5l3.8-57.6c6.7-0.7 13.3-1.2 19.9-1.8 36.7-3 75.4-4.5 115-4.5l115.9 4.5L648 625l3.8 57.5c-16.8-1.6-34.1-3-51.6-4z" fill="#F6442C" p-id="11880"></path><path d="M667.1 916.6H358.3l2.9-44.8h31.6c11 0 19.8-8.9 19.8-20 0-11-8.9-20-19.8-20h-29l1.9-28.4h22.8c11 0 19.8-8.9 19.8-20s-8.9-20-19.8-20h-20.2l2.7-40.7c44.7-4.6 92.3-7 141.7-7 29.2 0 57.9 0.8 85.2 2.4 19.3 1.1 38.2 2.7 56.5 4.5l12.7 194z" fill="#646567" p-id="11881"></path><path d="M348.3 111.3c6.4 4.8 18.8 17.5 35.7 45.8 19.4 32.7 39.1 76.5 55.5 123.3 13.1 37.5 23.4 75.1 29.5 107.8-14.4 4.3-28.1 10.6-40.6 18.9-16.3-30.2-32.3-67.2-46-106.5-16.4-46.9-28.2-93.5-33.4-131.2-4.5-32.6-2.7-50.3-0.7-58.1z" fill="#F2F2F2" p-id="11882"></path></svg>